<svg xmlns="http://www.w3.org/2000/svg" viewBox="0 0 398.77 343.7"><defs><style>.cls-1{fill:#ffb399;}.cls-2{fill:#9e6d33;}</style></defs><g id="fav"><polygon class="cls-1" points="153.25 77.85 99.72 153.54 103.82 217.39 165.26 287.9 180.14 295.7 240.35 294.63 291.18 201.46 301.87 167.53 291.55 121.93 153.25 77.85"/><polygon class="cls-2" points="168.67 55.8 133.87 69.45 103.82 116.69 103.82 148.83 121.87 143.39 138.04 124 144.02 101.07 158.43 116.69 182.32 132.31 223.11 148.83 264.02 153.54 294.96 148.83 294.96 132.31 278.79 83.1 240.35 60.31 199.43 46.47 168.67 55.8"/><polygon class="cls-2" points="103.82 182.09 103.82 226.46 103.82 295.7 180.14 295.7 168.84 272.3 172.08 247.79 138.04 221.85 121.87 187.76 103.82 182.09"/><polygon class="cls-2" points="293.49 181.03 293.49 225.4 293.49 294.63 217.17 294.63 228.46 271.24 225.22 246.73 259.27 220.79 275.44 186.7 293.49 181.03"/><path d="M196,226.46a20.54,20.54,0,0,0,15.19-6.74A6.83,6.83,0,1,0,201,210.56a7,7,0,0,1-9.57.55,6.83,6.83,0,1,0-9,10.26A20.5,20.5,0,0,0,196,226.46Z"/><circle cx="233.52" cy="182.09" r="6.83"/><circle cx="165.26" cy="182.09" r="6.83"/><path d="M305.2,152.78v-2.2c0-58.24-44.37-105.82-101-108.33a106.07,106.07,0,0,0-88.66,41.16c-8.14,10.57-14.1,23.42-17.71,38.19C95,133.14,93.57,142,93.57,148v4.3c0,.13.07.23.07.35a23.9,23.9,0,0,0-3.47,13.29,22.38,22.38,0,0,0,3.4,10.83V287.9h-.16v13.64h211.8V287.9h0v-111s0,0,0-.06a22.27,22.27,0,0,0,3.24-8.85A23.91,23.91,0,0,0,305.2,152.78ZM111.09,124.84c3.15-12.91,8.29-24,15.26-33.09a92.53,92.53,0,0,1,77.24-35.86c46.76,2.07,83.85,39.58,87.59,86.85a6.63,6.63,0,0,0-2.68.74c-22.76,12.36-68.43,1.57-99.85-14.85-21.74-11.37-35.94-24.67-37-34.7-.41-3.7-4.29-6.32-8.06-6a6.84,6.84,0,0,0-6.2,7.13c1.85,38.55-23.72,46.08-29.68,47.31A157.92,157.92,0,0,1,111.09,124.84ZM107.23,287.9V187.77a19.62,19.62,0,0,0,7.08,1.15,101.9,101.9,0,0,0,47.53,61.25v17.25a33.82,33.82,0,0,0,7,20.48Zm109.22-20.48a20.48,20.48,0,0,1-41,0V256.69c1.93.75,3.78,1.63,5.76,2.27a52.3,52.3,0,0,0,16,2.49,56.63,56.63,0,0,0,17.44-2.81l1.75-.57Zm75.1,20.48H223.11a33.82,33.82,0,0,0,7-20.48V252.67a102.25,102.25,0,0,0,54-63.77,20.9,20.9,0,0,0,7.42-1.14Zm3.33-121.55a10.49,10.49,0,0,1-5.14,7.29,8.8,8.8,0,0,1-8.4,1,6.82,6.82,0,0,0-8.94,5,88.41,88.41,0,0,1-58.87,65.07l-3,1a40.65,40.65,0,0,1-25.05.31,88.22,88.22,0,0,1-59.28-66.2,6.82,6.82,0,0,0-8.87-5.1c-2.63.89-5.07,1-8.39-1.22-3-2.05-5-5.13-5.08-8a10.19,10.19,0,0,1,5.51-9.46c6.15-1.21,32.46-8.15,39.84-39.25,7.62,8.34,18.89,16.57,33.16,24,32.9,17.21,80.12,29.2,109,16.53A10.29,10.29,0,0,1,294.88,166.35Z"/></g></svg>